<svg id="visual" viewBox="0 0 900 600" width="900" height="600" xmlns="http://www.w3.org/2000/svg" xmlns:xlink="http://www.w3.org/1999/xlink" version="1.1"><rect x="0" y="0" width="900" height="600" fill="#ffffff"></rect><defs><linearGradient id="grad1_0" x1="33.3%" y1="100%" x2="100%" y2="0%"><stop offset="20%" stop-color="#ffffff" stop-opacity="1"></stop><stop offset="80%" stop-color="#ffffff" stop-opacity="1"></stop></linearGradient></defs><defs><linearGradient id="grad2_0" x1="0%" y1="100%" x2="66.7%" y2="0%"><stop offset="20%" stop-color="#ffffff" stop-opacity="1"></stop><stop offset="80%" stop-color="#ffffff" stop-opacity="1"></stop></linearGradient></defs><g transform="translate(900, 600)"><path d="M-243.4 0C-244.3 -36 -245.2 -71.9 -224.8 -93.1C-204.5 -114.3 -163 -120.7 -137.9 -137.9C-112.8 -155 -104.1 -183 -83.8 -202.3C-63.6 -221.7 -31.8 -232.5 0 -243.4L0 0Z" fill="#1a143d"></path></g><g transform="translate(0, 0)"><path d="M243.4 0C239.4 33.8 235.5 67.5 218 90.3C200.6 113.1 169.6 125 148.5 148.5C127.4 172 116.2 207.1 93.1 224.8C70 242.6 35 243 0 243.4L0 0Z" fill="#1a143d"></path></g></svg>